<?xml version="1.0" encoding="utf-8"?>
<!-- Generator: Adobe Illustrator 25.2.1, SVG Export Plug-In . SVG Version: 6.00 Build 0)  -->
<svg version="1.1" id="Layer_1" xmlns="http://www.w3.org/2000/svg" xmlns:xlink="http://www.w3.org/1999/xlink" x="0px" y="0px"
	 viewBox="0 0 453.54 453.54" style="enable-background:new 0 0 453.54 453.54;" xml:space="preserve">
<style type="text/css">
	.st0{display:none;fill-rule:evenodd;clip-rule:evenodd;fill:#FFFFFF;}
	.st1{display:none;fill-rule:evenodd;clip-rule:evenodd;fill:#E8EBED;}
	.st2{display:none;fill-rule:evenodd;clip-rule:evenodd;fill:#E8EAEB;}
	.st3{display:none;fill-rule:evenodd;clip-rule:evenodd;fill:#ECECEB;}
	.st4{display:none;fill-rule:evenodd;clip-rule:evenodd;fill:#CBDAE6;}
	.st5{display:none;fill-rule:evenodd;clip-rule:evenodd;fill:#E5E6E6;}
	.st6{display:none;fill-rule:evenodd;clip-rule:evenodd;fill:#E5E3E1;}
	.st7{display:none;fill-rule:evenodd;clip-rule:evenodd;fill:#E9E6E6;}
	.st8{display:none;fill-rule:evenodd;clip-rule:evenodd;fill:#EBE8E7;}
	.st9{display:none;fill-rule:evenodd;clip-rule:evenodd;fill:#FEFDFD;}
	.st10{display:none;fill-rule:evenodd;clip-rule:evenodd;fill:#FBFAFA;}
	.st11{fill-rule:evenodd;clip-rule:evenodd;fill:#02B4BD;}
	.st12{fill-rule:evenodd;clip-rule:evenodd;fill:#02B4BD;stroke:#02B4BD;stroke-width:1.1117;stroke-miterlimit:10;}
	.st13{fill-rule:evenodd;clip-rule:evenodd;fill:#0E3F4E;}
	.st14{fill-rule:evenodd;clip-rule:evenodd;fill:#BFD430;}
	.st15{display:none;fill-rule:evenodd;clip-rule:evenodd;stroke:#0F404E;stroke-miterlimit:10;}
	.st16{display:none;fill-rule:evenodd;clip-rule:evenodd;fill:#FFFFFF;stroke:#0F404E;stroke-miterlimit:10;}
</style>
<path class="st0" d="M574.27,339.77c0,134.25-0.02,268.51,0.08,402.76c0,3.07-0.69,3.76-3.76,3.76
	c-268.51-0.08-537.02-0.08-805.52,0c-3.07,0-3.76-0.69-3.76-3.76c0.08-268.51,0.08-537.02,0-805.53c0-3.06,0.69-3.76,3.76-3.76
	c268.51,0.08,537.02,0.08,805.52,0c3.07,0,3.77,0.69,3.76,3.76C574.26,71.26,574.27,205.52,574.27,339.77z M285.31,278.78
	L285.31,278.78c1.07-0.02,1.61-0.57,1.63-1.64c0.27,0,0.54-0.01,0.82-0.01c1.78,0.13,3.09-0.4,3.37-2.39c2.98-0.66,5-4.37,8.79-2.74
	c0.4,0.17,1.48-0.66,1.93-1.26c2.21-2.95,4.38-5.91,7.09-8.48c3.38-3.21,6.27-7.01,10.21-9.53c3.06-1.96,4.38-4.24,4.89-7.91
	c0.58-4.23,4.98-6.62,6.83-10.43c0.14-0.3,0.99-0.36,1.5-0.35c6.12,0.1,6.15,0.07,3.84-5.62c-0.2-0.5-0.56-0.97-0.66-1.49
	c-0.51-2.75,0.74-5.1,2.35-7c1.59-1.88,1.88,1.06,3,1.31c1.06,0.23,2.35,0.65,2.96-0.47c0.77-1.42-0.69-1.87-1.6-2.29
	c-2.06-0.95-2.16-2.17-1.46-4.27c0.94-2.82,2.8-5.43,3.23-8.17c0.87-5.51,2.45-10.89,3.9-16.16c1.73-6.26,2.09-12.73,2.44-18.85
	c0.69-12.06,1.97-24.38-1.92-36.39c-1.53-4.72,1.72-10.78-3.98-14.43c-0.16-0.11-0.14-0.51-0.2-0.77c-0.23-1.05,0.32-2.93-1.67-2.39
	c-1.33,0.36-0.36,1.85-0.53,2.81c-0.55,3.23,2.86,6.2,0.86,9.44c-2.61-0.3-3.21-2.94-5.28-3.58v-0.01c0.07-0.25,0.02-0.48-0.14-0.68
	c-0.2-0.6-0.4-1.2-0.6-1.8c0.68-6.52,0.68-6.51-5.56-5.77c-0.67,0.08-1.38,0.15-2.02-0.01c-7.46-1.86-15.04,0.12-22.54-0.73
	c-1.25-0.14-2.52-0.04-2.67,1.69c-0.82-0.03-1.64-0.05-2.46-0.08c-0.11-1.7-1.31-1.65-2.53-1.57c-1.35-0.02-2.71-0.03-4.06-0.05
	c-1.08,0-1.76-0.76-2.51-1.36c-0.5-3.7-2.48-5.04-7.47-5.07c-1.08,0.01-1.66-0.83-2.37-1.43c-17.42-14.91-24.53-40.43-15.61-62.51
	c1.98-4.92,1.85-4.88-3.13-7.16c-10.79-4.94-22.15-7.99-33.71-10.47c-0.49-1.13,1.1-4.23-0.25-3.21c-2.98,2.24-3.62-0.05-5.36-1
	c-1.36-0.74-3.52-0.91-4.66,0.23c-2.27,2.29-4.95,2.06-7.61,1.84c-5.86-0.48-11.75,0.05-17.6-1.18c-2.34-0.49-5.42-0.62-7.51,1.26
	c-3.02,2.71-6.35,0.57-9.79,1.56c1.97-3.13,2.04-2.92,8.32-5.02c6.81-2.27,13.93-1.91,20.88-2.91c4.95-0.72,10.06-0.3,15.17,1.23
	c4.96,1.49,10.4,1.37,15.65,1.84c1.71,0.15,1.97,1.11,1.94,2.46c-0.09,0.04-0.2,0.07-0.27,0.13c-0.04,0.04-0.04,0.14-0.06,0.21
	c0.12-0.11,0.23-0.22,0.35-0.33c3.62,0.97,7.6-0.38,11.03,1.61c2.32,1.36,4.32,3.46,7.43,1.89c0.62-0.31,0.96,0.67,1.19,1.34
	c1.06,3.1,3.24,0.03,4.8,0.82c0.53,0.27,1.54-0.13,1.51-0.94c-0.07-2.1-2.28-2.22-3.32-2.27c-7.67-0.4-13.61-5.65-21.13-6.96
	c-6.82-1.19-13.77-2.16-20.52-2.54c-9.88-0.55-19.87-1.11-29.94,0.94c-5.77,1.17-11.82,2.03-17.78,2.69
	c-2.34,0.26-3.36,2.93-5.81,2.58c-3.4-0.48-6.16,1.01-9.13,2.45c-2.67,1.29-5.47,2.89-8.05,3.69c-5.88,1.83-10.69,5.07-15.62,8.36
	c-2.21,1.48-4.84,2.45-5.99,5.15c-2.87-0.31-3.98,3.57-5.42,3.43c-4.3-0.4-5.78,3.07-8.2,4.94c-5.02,3.87-8.71,9.29-13.99,12.92
	c-1.83,1.26-2.83,2.61-2.77,4.98c0.06,2.41-1.76,5.59-3.02,5.86c-6.22,1.3-4.31,8.69-8.88,10.9c-1.35,7.41-6.47,13.15-8.83,20.18
	c-1.2,3.54-1.07,7.28-2.93,10.77c-3.02,5.68-5.52,11.73-4.96,18.56c0.34,4.06,0.06,8.17,0.06,12.25c-1.14,0.14-1.62,0.8-1.62,1.92
	c0.01,5.27,0.01,10.54,0,15.82c0,1.12,0.48,1.78,1.62,1.92c-1.07,11.22,2.4,21.87,4.09,32.75c-3.74,0.96-2.27,2.94-0.39,3.93
	c4.84,2.55,1.71,8.45,5.2,11.42c-2.08,4.76,1.22,4.35,4.14,4.32c0.19,1.11-0.34,2.41,0.87,3.25c0.27,0.28,0.55,0.54,0.82,0.82
	c1.02,3.57,2.9,6.6,5.72,9.03c0.01,0.54,0.01,1.08,0.02,1.62c0.45,1.14,1.74,1.86,1.65,3.27c-1,3.36-0.16,5.59,3.43,6.88
	c2.83,1.02,4.67,3.42,6.13,6.08c1.19,2.16-0.61,6.68,4.52,5.88c0.16-0.03,0.53,0.87,0.71,1.38c0.43,1.2,1.46,1.02,2.38,1.08
	c2.79,0.61,4.12,2.94,5.74,4.91c0.06,0.81-0.21,1.93,0.22,2.39c3.44,3.68,8.04,6.1,11.2,10.13c0.19,0.25,0.94,0.44,1.09,0.29
	c2.48-2.31,3.65,0.17,5.39,1.24c2.69,1.64,4.81,4.06,8.14,4.9c2.06,0.51,3.61,2.75,6.21,2.49c0.98-0.1,1.18,0.9,1.29,1.77
	c0.13,1.01-0.41,2.48,1.03,2.77c1.59,0.32,2.35-1.06,3.09-2.21c0.27,0,0.53,0,0.8-0.01c1.54,0.09,2.29,2.17,4.08,1.64
	c0.48,1.07,1.28,1.63,2.47,1.62c1.11,0.06,2.49,0.39,2.78,1.26c1.44,4.52,4.39,4.28,7.86,2.83c0.55,0,1.09,0.01,1.64,0.01
	c0.08,1.65,1.26,1.65,2.46,1.62c2.18,0.01,4.36,0.02,6.55,0.03c0.15,0.88,0.53,1.53,1.52,1.57c6.04,0.24,12.13-0.41,18.12,0.89
	c3.39,0,6.79,0.17,10.18-0.03c3.17-0.19,6.47,0.95,9.51-0.79c2.17,0,4.34,0,6.51,0c2.19-0.01,4.37-0.02,6.55-0.03
	c4.9,0,9.98,0.8,13.92-3.27l0.41,0l0.41-0.01c2.18,0.77,4.97,3.24,4.81-1.99c-0.04-1.22,1.47-1.28,2.56-1.26
	c5.11-0.31,9.4-2.95,13.92-4.92c1.19,0.01,2.38,0.02,2.46-1.63c2.45-1.09,4.91-2.19,7.36-3.28c2.53,0.23,4.7-0.05,4.91-3.29
	C284.74,280.4,285.27,279.85,285.31,278.78z M291.84,51.2c-3.29-0.45-4.77,1.18-5.85,4.19c-0.96,2.67-0.82,6.03-2.62,7.96
	c-3.88,4.18-2.58,8.74-1.14,12.75c1.58,4.38,2.5,9.2,5.13,13.03c2.21,3.22,3.38,7.76,8.78,8.21c1.84,0.16,2.4,4.59,5.83,3.38
	c0.01,0,0.16,0.25,0.13,0.35c-0.81,3.25,1.7,2.38,3.21,2.46c2.72,0.12,5.45,0.04,8.18,0.03c1.19-0.01,2.57,0.29,2.91-1.45
	c0.24-0.13,0.49-0.19,0.76-0.17c2.8,0.47,5.86-0.89,8.46,1.41c0.51,0.45,2.7-0.4,2.16-1.18c-1.27-1.86,1.42-2.17,0.89-3.46
	c0.52-0.85,1.41-1.16,2.2-1.67c10.05-6.58,16.87-18.77,14.31-31.15c-3.49-16.92-22.45-30.27-40.83-23.2
	C299.38,44.58,295.67,47.85,291.84,51.2z"/>
<path class="st1" d="M78.25,183.45c1.02,0.91,1.79,0.55,2.81-0.23c20.07-15.27,40.19-30.49,60.29-45.72
	c4.42-3.35,8.79-6.77,13.22-10.1c3.59-2.7,6.19-2.55,10.81,0.56c12.26,8.21,24.51,16.44,36.76,24.67
	c7.65,5.14,15.38,10.16,22.87,15.51c2.48,1.77,4.22,1.58,6.58,0.05c8.53-5.54,17.24-10.82,25.72-16.43c3.43-2.27,6.34-2.1,9.75-0.03
	c22.03,13.38,44.13,26.66,66.22,39.95c4.19,2.52,4.2,2.49,5.25-2.16c4.5-20.09,4.66-40.15-0.39-60.19c-0.3-1.17-0.32-2.41-0.48-3.62
	c2.07,0.64,2.66,3.28,5.28,3.58c2-3.25-1.41-6.21-0.86-9.44c0.17-0.96-0.8-2.45,0.53-2.81c1.99-0.54,1.44,1.34,1.67,2.39
	c0.06,0.26,0.03,0.67,0.2,0.77c5.71,3.65,2.46,9.71,3.98,14.43c3.88,12.01,2.61,24.33,1.92,36.39c-0.35,6.12-0.71,12.59-2.44,18.85
	c-1.46,5.27-3.03,10.65-3.9,16.16c-0.43,2.74-2.29,5.35-3.23,8.17c-0.7,2.1-0.6,3.32,1.46,4.27c0.91,0.42,2.37,0.87,1.6,2.29
	c-0.61,1.13-1.9,0.71-2.96,0.47c-1.12-0.25-1.41-3.19-3-1.31c-1.61,1.9-2.86,4.25-2.35,7c0.1,0.52,0.46,0.99,0.66,1.49
	c2.3,5.69,2.28,5.71-3.84,5.62c-0.52-0.01-1.36,0.05-1.5,0.35c-1.85,3.81-6.25,6.2-6.83,10.43c-0.51,3.67-1.83,5.95-4.89,7.91
	c-3.94,2.52-6.84,6.32-10.21,9.53c-2.7,2.57-4.87,5.53-7.09,8.48c-0.45,0.6-1.53,1.44-1.93,1.26c-3.79-1.64-5.81,2.07-8.79,2.74
	c-1.82-0.18-3.22,0.21-3.37,2.39c-0.27,0-0.54,0-0.82,0.01c-1.07,0.03-1.62,0.57-1.63,1.65l0-0.01c-1.06,0.02-1.62,0.56-1.65,1.62
	c-0.2,3.23-2.38,3.52-4.91,3.29c0.16-0.99,1.75-1.43,1.06-2.85c-2.29,0.99-4.61,1.86-6.79,3c-1.11,0.58-3.1,1.06-1.63,3.13
	c-0.09,1.65-1.27,1.64-2.46,1.63c-0.24-0.45-0.64-1.31-0.71-1.29c-4.26,1.51-8.5,3.08-12.7,4.73c-0.31,0.12-0.34,0.96-0.51,1.47
	c-1.09-0.01-2.6,0.04-2.56,1.26c0.16,5.23-2.62,2.76-4.81,1.99c0.16-0.72,1.1-1.42,0.15-2.16c-0.24-0.19-0.87-0.18-1.12,0
	c-0.95,0.74-0.01,1.44,0.15,2.16c-3.94,4.07-9.03,3.27-13.92,3.27c-2.19-2.6-4.37-2.63-6.55,0.03c-2.17,0-4.34,0-6.51,0
	c-3.12,0-6.25-0.17-9.36,0.04c-3.44,0.24-7-0.99-10.32,0.79c-5.99-1.29-12.08-0.65-18.12-0.89c-0.99-0.04-1.38-0.7-1.52-1.57
	c0.11-1.67-0.54-2.41-2.32-2.52c-1.73-0.1-3.74-0.2-5.08-1.11c-3.01-2.03-3.11-0.22-3.24,1.97c-3.47,1.45-6.43,1.69-7.86-2.83
	c-0.29-0.88-1.67-1.21-2.78-1.26c-0.37-1.22-0.31-3.11-2.47-1.62c-1.79,0.53-2.54-1.55-4.08-1.64c-0.1-0.85,0.23-1.92-0.95-2.28
	c-0.5-0.15-1.11-0.07-1.18,0.61c-0.1,0.93,0.64,1.31,1.33,1.68c-0.74,1.15-1.5,2.53-3.09,2.21c-1.44-0.29-0.91-1.76-1.03-2.77
	c-0.1-0.87-0.31-1.86-1.29-1.77c-2.6,0.26-4.15-1.97-6.21-2.49c-3.33-0.84-5.46-3.26-8.14-4.9c-1.74-1.07-2.91-3.55-5.39-1.24
	c-0.15,0.14-0.9-0.05-1.09-0.29c-3.16-4.03-7.75-6.45-11.2-10.13c-0.43-0.46-0.16-1.58-0.22-2.39c0.9-0.02,1.87,0.15,2.45-0.82
	c1.97,1.79,4.43,2.86,6.32,4.86c1.07,1.12,3.79,2.9,4.62,1.6c1.01-1.58,0.43-4.38-1.91-5.78c-0.8-0.47-1.51-1.25-2.36-1.43
	c-2.6-0.54-1.53-1.96-0.95-3.32c1.11,0.72,2.3,1.35,3.33,2.18c29.37,23.6,62.82,33.32,100.16,28.68
	c33.73-4.2,61.58-19.77,83.83-45.38c4.91-5.65,4.83-5.71-0.34-10.65c-0.99-0.94-1.86-2-2.88-2.89c-3.37-2.91-6.59-6.1-11.36-6.67
	c-6.75-0.82-12.27,1.43-16.66,6.58c-10.35,12.17-22.29,12.62-32.15,8.91c-5.37-2.02-9-6.39-13.09-10.14
	c-7.8-7.16-15.5-7.56-23.77-1.12c-2.46,1.92-4.69,4.14-6.88,6.37c-8.8,8.96-25.6,8.85-33.3,1.57c-3.05-2.88-6.14-5.74-9.41-8.36
	c-7.47-5.99-16.72-5.59-23.07,1.44c-7.44,8.22-15.91,13.5-27.47,12.07c-0.63-0.08-1.43-0.31-1.86,0.36
	c-0.57,0.88,0.12,1.51,0.64,2.12c0.52,0.62,1.08,1.21,1.58,1.85c3.63,4.71,8.77,8,12.2,12.9c-3.5,0.53-5.96-0.53-7.05-4.2
	c-0.41-1.36-1.21-3.48-2.66-3.21c-3.27,0.6-2.62-2.12-3.76-3.4c-1.59-1.78-1.95-5.4-5.68-4.58c-0.63-1.83-3.27-3.67,0.05-5.51
	c0.28-0.16,0.45-1.27,0.29-1.38c-1.43-0.99-1.43-3.74-3.44-3.59c-2.25,0.16-5.15-1.81-6.75,1.48c-1.08,0-2.16,0-3.24,0
	c-0.01-0.54-0.01-1.08-0.02-1.62c2.19-0.38,1.44-1.41,0.49-2.39c-1.58-1.63-2.31-3.53-2.12-5.79c1.28-1.41,1.41-3.52,0.24-4.36
	c-1.74-1.25-1.63-2.2-1.24-3.98c0.67-3.05-3.09-6.2-6.36-5.61c-0.75-1.28-1.98-2.36-1.64-4.08c2.62,0.01,3.61-0.9,2.76-3.74
	c-0.95-3.2-2.97-4.39-6.04-4.45c-0.02-1.81-2.15-2.92-1.65-4.91c0.87-1.66,1.19-3.4,4.14-2.77c3.1,0.67,4.57-3.66,7.75-3.8
	c2.59-0.11,2.9-2.29,3.33-4c0.29-1.17-0.58-2.28-2.07-2.53c-2.31-0.39-3.6,0.7-4.3,2.77c-0.17,0.51-0.44,1-0.57,1.52
	c-0.22,0.88-0.03,2.09-1.42,2.07c-1.23-0.01-2.07-0.89-2.42-1.92C78.21,185.66,78.33,184.52,78.25,183.45z M333.97,205.13
	c-0.09-2-1.81-2.57-3.15-3.38c-7.91-4.77-15.84-9.48-23.76-14.23c-13.98-8.37-27.94-16.79-41.95-25.11
	c-1.28-0.75-2.56-2.17-4.44-0.96c-9.02,5.78-18.36,11.1-26.97,17.42c-3.77,2.76-6.4,2.7-9.75,0.46
	c-20.49-13.73-41.01-27.42-61.42-41.28c-2.29-1.55-3.65-1.21-5.57,0.27c-7.8,6.02-15.7,11.92-23.56,17.87
	c-16.64,12.58-33.29,25.16-49.93,37.73c-1.19,0.9-2.41,1.56-1.74,3.56c4.05,12.14,8.06,24.11,18.66,32.69
	c9.19,7.43,18.56,7.47,26.84-0.97c1.33-1.36,2.7-2.7,4-4.09c4.65-4.98,10.56-6.86,17.18-7.18c9.53-0.46,16.43,4.31,22.65,10.85
	c8.65,9.1,17.99,9.28,27.2,0.77c1.6-1.47,3.1-3.04,4.71-4.49c8.56-7.75,18.26-9.05,28.77-4.76c5.29,2.16,8.71,6.77,12.81,10.47
	c7.34,6.62,16.15,6.65,23.53,0.23c3.24-2.83,5.87-6.24,9.5-8.72c7.94-5.43,19.91-5.73,28.15-0.7c3.91,2.39,6.9,5.67,10.09,8.78
	c2.47,2.41,4.34,3.24,6.27-0.67c2.28-4.62,5.18-8.93,7.47-13.54C331.29,212.61,332.5,208.83,333.97,205.13z M141.03,278.02
	c-0.09-2.09-2.07-3.54-6.79-4.44c-1.03-0.2-2.17-1.04-2.68,0.57c-0.37,1.15,0.01,2.32,1.19,2.7c2.33,0.76,4.54,1.73,6.64,3
	C140.53,280.54,141.17,280.06,141.03,278.02z M164.62,292.47c-0.23-0.1-0.45-0.2-0.68-0.3c-0.1,0.23-0.32,0.51-0.26,0.67
	c0.07,0.16,0.42,0.21,0.65,0.31C164.42,292.93,164.52,292.7,164.62,292.47z M168.75,292.93c-0.09-0.23-0.13-0.58-0.29-0.66
	c-0.16-0.07-0.45,0.15-0.68,0.23c0.09,0.23,0.13,0.59,0.29,0.66C168.23,293.23,168.52,293.02,168.75,292.93z"/>
<path class="st2" d="M77.46,177.51c0.01,0.45,0.03,0.9,0.04,1.35c-1.33,0.82-0.83,2.17-0.94,3.33l0,0c-0.27,0-0.55,0-0.82,0
	c-0.01-8.17-0.4-16.37,0.07-24.52c0.44-7.67-1.81-15.54,1.52-23c-2.44-2.36-0.94-5.85-2.62-8.6c-1.33,4.58-1.96,9.25-3.15,13.76
	c-0.84,3.19,0.83,7.02-2.36,9.61l-0.01-0.01c0-4.09,0.28-8.2-0.06-12.25c-0.56-6.83,1.94-12.88,4.96-18.56
	c1.86-3.49,1.73-7.23,2.93-10.77c2.37-7.03,7.49-12.77,8.83-20.18c4.57-2.21,2.66-9.59,8.88-10.9c1.26-0.27,3.09-3.45,3.02-5.86
	c-0.06-2.37,0.93-3.72,2.77-4.98c5.28-3.63,8.97-9.04,13.99-12.92c2.42-1.87,3.9-5.34,8.2-4.94c1.43,0.13,2.55-3.75,5.42-3.43
	l0.02,0.02c0.28,1.9-0.99,2.98-2.12,4.17c-1.53,1.61-0.92,2.34,1.09,2.37c2.04,0.03,4.08,0.08,6.13,0.11
	c-4.4,3.31-8.79,6.62-13.19,9.93c0.21-1.18-3.52-2.43,0.04-3.51c1.41-0.43,1.81-1.38,1.18-2.43c-0.8-1.35-2.57-1.12-3.06-0.11
	c-1.48,3.06-4.54,4.29-6.72,6.5c-0.55,0.55-1.46,1.19-0.9,2.02c0.62,0.93,1.81,0.75,2.53,0.16c1.65-1.33,3.47-1.33,5.38-1.14
	c-2.07,3.7-5.89,5.81-8.3,9.18c-0.65,0.91-2.44,1.42-1.64,2.89c0.6,1.09,1.99,0.45,3.02,0.43c23.29-0.46,46.57-0.94,69.86-1.45
	c1.16-0.02,2.84,0.66,3.33-0.71c0.49-1.35-0.85-2.51-1.81-3.43c-4.24-4.08-9.67-4.51-14.91-3.64c-3.81,0.63-5.57-1.4-6.71-3.76
	c-4.27-8.9-10.2-14.6-20.92-12.56c2.03-2.62-0.14-3.49-2.68-4.38c2.98-1.06,5.29-0.6,7.53-0.61c2.04-0.01,3.19-0.06,2.89-2.82
	c-0.26-2.44,1.04-4.41,4.22-3.81c1.18,0.23,2.43,0.08,3.65,0.11c-1.57,1.42-4.02,1.55-5.4,3.65c2.85,1.65,6.06,2.28,8.48,4.65
	c2.86,2.79,4.86,5.93,5.24,9.81c0.27,2.75,1.03,2.84,3.57,2.26c10.44-2.38,21.14,3,24.58,11.93c0.95,2.45,1.02,5.03,1.2,7.56
	c0.22,3.06-1.79,3.71-4.53,3.76c-20.82,0.35-41.65,0.83-62.47,1.25c-7.49,0.15-14.97,0.35-22.46,0.37
	c-2.28,0.01-3.79,0.73-5.08,2.63C86.64,104.5,79.36,124.9,77,147.01c-1.03,9.6-0.87,19.28,0.33,28.9
	C77.37,176.44,77.41,176.97,77.46,177.51z"/>
<path class="st3" d="M163.97,34.77c-1.25,1.43-2.84,2.01-4.7,1.96c-0.4-1.61-2.47-3.32,0.78-4.57c-2-0.89-3.23-0.18-4.68,0.24
	c-6.18,1.77-10.92,6.44-16.99,8.31c-3.51,1.09-5.64,5.74-10.24,3.95l-0.02-0.02c1.15-2.7,3.78-3.67,5.99-5.15
	c4.93-3.29,9.74-6.54,15.62-8.36c2.59-0.81,5.38-2.41,8.05-3.69c2.97-1.43,5.74-2.93,9.13-2.45c2.46,0.35,3.47-2.32,5.81-2.58
	c5.96-0.66,12.01-1.52,17.78-2.69c10.07-2.05,20.06-1.49,29.94-0.94c6.75,0.38,13.7,1.35,20.52,2.54
	c7.52,1.31,13.47,6.56,21.13,6.96c1.04,0.05,3.25,0.17,3.32,2.27c0.03,0.81-0.97,1.2-1.51,0.94c-1.56-0.78-3.74,2.29-4.8-0.82
	c-0.23-0.67-0.57-1.66-1.19-1.34c-3.11,1.57-5.1-0.52-7.43-1.89c-3.42-2-7.41-0.64-11.03-1.61l-0.01-0.01
	c0.03-1.35-0.24-2.31-1.94-2.46c-5.24-0.47-10.69-0.36-15.65-1.84c-5.12-1.53-10.22-1.95-15.17-1.23c-6.94,1-14.07,0.64-20.88,2.91
	c-6.29,2.1-6.35,1.89-8.32,5.02c3.44-0.99,6.77,1.15,9.79-1.56c2.09-1.88,5.16-1.75,7.51-1.26c5.86,1.23,11.75,0.7,17.6,1.18
	c2.66,0.22,5.34,0.45,7.61-1.84c1.14-1.15,3.3-0.97,4.66-0.23c1.74,0.95,2.38,3.24,5.36,1c1.35-1.02-0.23,2.08,0.25,3.21
	c-10.96-1.13-21.91-1.82-32.94-0.95c-2.78,0.22-5.48,1.66-8.35,0.67c-0.16-0.12-0.32-0.25-0.48-0.37c0.12,0.15,0.23,0.29,0.35,0.44
	c-4.42,0.97-8.84,1.95-13.26,2.92c-0.75-2.39-1.18-5.42-4.69-4.58c-2.67,0.64-5.19,1.94-7.68,3.13c-1.72,0.82,0.04,3.39-1.87,4.27
	C162.07,35.19,163.08,34.68,163.97,34.77z M176.01,25.06c-0.21,0.13-0.4,0.25-0.6,0.37c0.21,0.11,0.42,0.31,0.62,0.31
	c0.2-0.01,0.4-0.21,0.6-0.33C176.43,25.3,176.23,25.18,176.01,25.06z"/>
<path class="st4" d="M291.84,51.2c-4.56,4.93-7.19,10.91-7.86,17.43c-0.83,7.98,1.75,15.21,6.89,21.41
	c6.62,7.99,15.32,11.67,25.55,12.06c-0.34,1.74-1.72,1.45-2.91,1.45c-2.73,0.02-5.46,0.1-8.18-0.03c-1.51-0.07-4.01,0.79-3.21-2.46
	c0.03-0.1-0.13-0.35-0.13-0.35c-3.43,1.21-4-3.23-5.83-3.38c-5.4-0.46-6.57-4.99-8.78-8.21c-2.63-3.83-3.55-8.65-5.13-13.03
	c-1.45-4.01-2.74-8.57,1.14-12.75c1.8-1.93,1.66-5.29,2.62-7.96C287.07,52.38,288.55,50.74,291.84,51.2z"/>
<path class="st1" d="M336.92,123.24c-0.71-2.68-1.99-3.3-4.92-2.53c-6.98,1.86-14.14,2.51-21.32,0.86
	c-0.23-1.73-1.53-1.58-2.75-1.57c-1.5,0.02-3.02,0.1-3.8-1.59c0.15-1.73,1.42-1.83,2.67-1.69c7.49,0.85,15.07-1.12,22.54,0.73
	c0.64,0.16,1.36,0.09,2.02,0.01C337.6,116.73,337.6,116.72,336.92,123.24z M323.95,119.41c-0.47-0.08-0.84-0.21-1.21-0.21
	c-0.23,0-0.46,0.19-0.68,0.3c0.28,0.62,0.83,0.44,1.31,0.39C323.54,119.88,323.68,119.64,323.95,119.41z"/>
<path class="st1" d="M108.48,260.77c-0.93-0.06-1.95,0.12-2.38-1.08c-0.18-0.5-0.54-1.4-0.71-1.38c-5.12,0.8-3.33-3.72-4.52-5.88
	c-1.46-2.66-3.3-5.06-6.13-6.08c-3.59-1.29-4.44-3.51-3.43-6.88c1.08,0,2.16,0,3.24,0c-0.24,1.89,2.7,1.39,2.47,3.27
	c-0.85,0.12-1.74,0.41-1.43,1.43c0.49,1.59,1.98,0.83,3.06,1.03c1.3,0.71,2.36,2.03,4.09,1.58c0.26,0.07,0.53,0.13,0.77,0.24
	c0.08,0.03,0.14,0.31,0.13,0.32c-1.96,1.07-2.58,1.99,0.11,2.98c1.79,0.66,1.4,2.39,1.48,3.84
	C105.44,256.81,108.21,258.17,108.48,260.77z"/>
<path class="st1" d="M82.23,221.51c-2.92,0.03-6.23,0.44-4.14-4.32c-3.49-2.97-0.36-8.88-5.2-11.42c-1.88-0.99-3.36-2.98,0.39-3.93
	c0.82,0,1.64,0,2.47,0c2.83,1.42,1.61,4.37,2.44,6.54c-1.41,3.03-0.34,5.12,2.48,6.55c0.82,0.15,2.35-0.22,2.05,1.08
	c-0.45,1.94,0.78,3.6,0.42,5.43C82.84,221.46,82.54,221.49,82.23,221.51z"/>
<path class="st5" d="M108.48,260.77c-0.27-2.6-3.04-3.96-3.26-6.58c1.02,0.13,2.45-0.35,2.94,0.77c1.83,4.2,6.71,5.72,8.51,9.9
	c-0.58,0.97-1.55,0.8-2.45,0.82C112.59,263.71,111.27,261.38,108.48,260.77z"/>
<path class="st6" d="M69.18,169.09c-1.14-0.13-1.62-0.8-1.62-1.92c0.01-5.27,0.01-10.54,0-15.82c0-1.12,0.48-1.78,1.62-1.92
	l0.01,0.01C69.19,155.99,69.18,162.54,69.18,169.09L69.18,169.09z"/>
<path class="st7" d="M255.01,293.52c0.16-0.51,0.19-1.35,0.51-1.47c4.2-1.65,8.45-3.22,12.7-4.73c0.07-0.03,0.47,0.84,0.71,1.29
	C264.4,290.57,260.12,293.22,255.01,293.52z"/>
<path class="st2" d="M169.87,296.79c0.14-2.19,0.24-4,3.24-1.97c1.34,0.91,3.35,1.01,5.08,1.11c1.78,0.11,2.43,0.85,2.32,2.52
	c-2.18-0.01-4.37-0.02-6.55-0.03c-0.08-1.65-1.28-1.62-2.46-1.62C170.97,296.79,170.42,296.79,169.87,296.79z"/>
<path class="st8" d="M88.01,226.42c-0.2,2.26,0.54,4.16,2.12,5.79c0.95,0.98,1.7,2.01-0.49,2.39c-2.82-2.43-4.7-5.46-5.72-9.03
	c0.82,0,1.63,0,2.45,0C86.92,225.85,87.46,226.14,88.01,226.42z"/>
<path class="st7" d="M271.39,286.97c-1.47-2.07,0.52-2.55,1.63-3.13c2.19-1.14,4.51-2.01,6.79-3c0.68,1.42-0.9,1.86-1.06,2.85
	C276.3,284.79,273.84,285.88,271.39,286.97z"/>
<path class="st4" d="M317.17,101.93c3.84-1.08,7.68-2.16,11.52-3.23c0.53,1.29-2.16,1.6-0.89,3.46c0.54,0.79-1.65,1.63-2.16,1.18
	C323.03,101.04,319.97,102.4,317.17,101.93z"/>
<path class="st4" d="M292.57,115.35c-2.99-0.96-5.62-2.44-7.47-5.07C290.08,110.3,292.06,111.65,292.57,115.35z"/>
<path class="st6" d="M200.16,300.9c3.32-1.77,6.88-0.55,10.32-0.79c3.11-0.21,6.24-0.04,9.36-0.04c-3.04,1.75-6.34,0.61-9.51,0.79
	C206.96,301.07,203.55,300.9,200.16,300.9z"/>
<path class="st4" d="M304.13,118.41c0.78,1.69,2.3,1.61,3.8,1.59c1.21-0.01,2.52-0.16,2.75,1.57c-4.1-0.32-8.06-1.17-11.74-3.08
	c0.91-0.05,1.82-0.1,2.74-0.16C302.49,118.35,303.31,118.38,304.13,118.41z"/>
<path class="st5" d="M226.35,300.07c2.17-2.66,4.36-2.63,6.55-0.03C230.72,300.06,228.54,300.07,226.35,300.07z"/>
<path class="st8" d="M94.55,239.49c-1.08,0-2.16,0-3.24,0c0.09-1.41-1.2-2.13-1.65-3.27c1.08,0,2.16,0,3.24,0
	C92.81,237.63,94.1,238.35,94.55,239.49z"/>
<path class="st8" d="M82.23,221.51c0.3-0.02,0.61-0.05,0.92-0.07c1.03,0.08,1.58,0.63,1.59,1.68c-0.55,0.55-1.09,1.09-1.64,1.64
	C81.9,223.92,82.42,222.62,82.23,221.51z"/>
<path class="st1" d="M83.1,224.75c0.55-0.54,1.09-1.09,1.64-1.64c1.66,0.08,1.65,1.27,1.63,2.46c-0.82,0-1.63,0-2.45,0
	C83.65,225.3,83.38,225.03,83.1,224.75z"/>
<path class="st7" d="M287.76,277.14c0.15-2.18,1.55-2.57,3.37-2.39C290.85,276.74,289.54,277.27,287.76,277.14z"/>
<path class="st4" d="M298.41,118.23c-1.3-0.09-2.44-0.54-3.33-1.52c1.36,0.02,2.71,0.03,4.07,0.05
	C298.9,117.25,298.66,117.74,298.41,118.23z"/>
<path class="st2" d="M151.89,289.44c-0.69-0.37-1.43-0.75-1.33-1.68c0.07-0.68,0.68-0.76,1.18-0.61c1.18,0.36,0.85,1.43,0.95,2.28
	C152.42,289.44,152.15,289.44,151.89,289.44z"/>
<path class="st1" d="M298.41,118.23c0.25-0.49,0.49-0.99,0.74-1.47c1.21-0.08,2.41-0.12,2.53,1.57c-0.91,0.05-1.83,0.11-2.74,0.16
	C298.69,118.56,298.51,118.47,298.41,118.23z"/>
<path class="st5" d="M246.83,296.78c-0.16-0.72-1.1-1.42-0.15-2.16c0.24-0.19,0.87-0.19,1.12,0c0.95,0.73,0.01,1.44-0.15,2.16
	l-0.41,0.01L246.83,296.78z"/>
<path class="st2" d="M156.77,291.07c2.15-1.49,2.09,0.4,2.47,1.62C158.05,292.7,157.24,292.14,156.77,291.07z"/>
<path class="st1" d="M171.51,296.79c1.18-0.01,2.37-0.04,2.46,1.62C172.77,298.44,171.6,298.45,171.51,296.79z"/>
<path class="st7" d="M285.3,278.79c0.02-1.07,0.57-1.62,1.63-1.65C286.92,278.21,286.37,278.76,285.3,278.79z"/>
<path class="st7" d="M283.66,280.41c0.03-1.07,0.59-1.6,1.65-1.62C285.27,279.85,284.74,280.4,283.66,280.41z"/>
<path class="st1" d="M337.67,125.71c-0.11-0.15-0.23-0.28-0.3-0.45c-0.02-0.04,0.1-0.15,0.16-0.23
	C337.69,125.24,337.74,125.46,337.67,125.71z"/>
<path class="st3" d="M239.46,25.84c-0.12,0.11-0.23,0.22-0.35,0.33c0.02-0.07,0.02-0.17,0.06-0.21c0.07-0.06,0.18-0.09,0.27-0.13
	L239.46,25.84z"/>
<path class="st9" d="M69.18,169.09c0-6.55,0-13.1,0.01-19.65c3.19-2.59,1.52-6.42,2.36-9.61c1.19-4.52,1.83-9.19,3.15-13.76
	c1.68,2.75,0.18,6.24,2.62,8.6c-3.33,7.47-1.08,15.34-1.52,23c-0.46,8.15-0.08,16.34-0.07,24.52c-1.47,1.44-0.56,3.27-0.79,4.91
	c0.05,1,0.29,1.92,1.44,2.11c0.23,0.04,0.73-0.39,0.79-0.67c0.22-1.13-0.62-1.31-1.46-1.44c1-1.52,0.86-3.22,0.84-4.92l0,0
	c0.48,0.02,0.96,0.04,1.45,0.06c0.08,0.4,0.16,0.8,0.25,1.2c0.08,1.07-0.04,2.22,0.29,3.21c0.34,1.02,1.19,1.91,2.42,1.92
	c1.38,0.02,1.19-1.19,1.42-2.07c0.14-0.52,0.4-1.01,0.57-1.52c0.69-2.08,1.99-3.16,4.3-2.77c1.49,0.25,2.36,1.35,2.07,2.53
	c-0.43,1.71-0.73,3.88-3.33,4c-3.18,0.14-4.65,4.47-7.75,3.8c-2.95-0.64-3.27,1.11-4.14,2.77c-1.61-1.72-0.57-3.88-0.92-5.81
	c-1.06-5.85-3.11-11.57-2.38-17.67C70.94,170.59,70.91,169.29,69.18,169.09z"/>
<path class="st0" d="M128.14,44.67c4.6,1.79,6.72-2.87,10.24-3.95c6.08-1.88,10.81-6.54,16.99-8.31c1.45-0.42,2.68-1.12,4.68-0.24
	c-3.25,1.25-1.18,2.96-0.78,4.57c-0.96,0.76-1.91,1.5-3.23,1.45c-1.22-0.03-2.47,0.12-3.65-0.11c-3.18-0.6-4.48,1.37-4.22,3.81
	c0.29,2.77-0.86,2.81-2.89,2.82c-2.25,0.01-4.56-0.45-7.53,0.61c2.54,0.89,4.71,1.76,2.68,4.38c-0.95,0.61-1.95,1-3.1,0.79
	c-0.95-0.15-1.9-0.33-2.63,0.55c-0.49,0.1-0.97,0.2-1.45,0.3c-2.05-0.04-4.09-0.08-6.13-0.11c-2.02-0.03-2.62-0.76-1.09-2.37
	C127.15,47.65,128.42,46.56,128.14,44.67z"/>
<path class="st0" d="M163.97,34.77c-0.89-0.09-1.9,0.42-2.62-0.53c1.9-0.88,0.15-3.44,1.87-4.27c2.5-1.2,5.02-2.5,7.68-3.13
	c3.51-0.84,3.95,2.19,4.69,4.58c-3.09,1.12-6.17,2.24-9.44,2.72c-0.6,0.13-1.2,0.26-1.79,0.39
	C164.12,34.49,163.99,34.57,163.97,34.77z"/>
<path class="st1" d="M78,182.24c-0.48-0.02-0.97-0.04-1.45-0.06c0.11-1.17-0.39-2.51,0.94-3.33C77.66,179.98,77.83,181.11,78,182.24
	z"/>
<path class="st1" d="M77.46,177.51c-0.04-0.54-0.08-1.07-0.12-1.61C78.02,176.39,77.74,176.95,77.46,177.51z"/>
<path class="st3" d="M164.36,34.53c0.6-0.13,1.19-0.26,1.79-0.39C165.65,34.67,165.13,35.18,164.36,34.53z"/>
<path class="st10" d="M121.9,260.61c0.23-0.11,0.39-0.05,0.49,0.19c-0.57,1.36-1.65,2.78,0.95,3.32c0.85,0.18,1.57,0.95,2.36,1.43
	c2.34,1.4,2.92,4.2,1.91,5.78c-0.83,1.3-3.55-0.48-4.62-1.6c-1.89-2-4.36-3.07-6.32-4.86c-1.8-4.18-6.68-5.7-8.51-9.9
	c-0.49-1.12-1.91-0.63-2.94-0.77c-0.07-1.45,0.31-3.18-1.48-3.84c-2.69-0.99-2.07-1.91-0.11-2.98c0.01-0.01-0.05-0.29-0.13-0.32
	c-0.24-0.11-0.5-0.17-0.77-0.24c0-0.53,0.01-1.05,0.01-1.58c3.73-0.82,4.09,2.8,5.68,4.58c1.15,1.29,0.5,4,3.76,3.4
	c1.45-0.26,2.25,1.85,2.66,3.21C115.95,260.08,118.4,261.14,121.9,260.61z"/>
<path class="st9" d="M102.75,245.22c0,0.53,0,1.05-0.01,1.58c-1.74,0.45-2.8-0.86-4.09-1.58c0-1.18-0.55-2-1.63-2.46
	c0.23-1.88-2.7-1.38-2.47-3.27c-0.45-1.14-1.74-1.86-1.65-3.27c1.59-3.29,4.49-1.32,6.75-1.48c2.01-0.15,2.01,2.6,3.44,3.59
	c0.16,0.11,0,1.22-0.29,1.38C99.47,241.55,102.12,243.39,102.75,245.22z"/>
<path class="st10" d="M86.37,225.57c0.01-1.19,0.02-2.37-1.63-2.46c-0.01-1.05-0.56-1.6-1.59-1.68c0.36-1.83-0.87-3.5-0.42-5.44
	c0.29-1.3-1.23-0.93-2.06-1.08c-0.01-0.82-0.01-1.64-0.02-2.45c3.27-0.59,7.03,2.57,6.36,5.61c-0.4,1.78-0.5,2.74,1.24,3.98
	c1.17,0.83,1.04,2.95-0.24,4.36C87.46,226.14,86.92,225.85,86.37,225.57z"/>
<path class="st10" d="M141.03,278.02c0.14,2.03-0.5,2.52-1.65,1.83c-2.1-1.27-4.31-2.24-6.64-3c-1.18-0.38-1.56-1.55-1.19-2.7
	c0.52-1.61,1.66-0.76,2.68-0.57C138.96,274.49,140.94,275.94,141.03,278.02z"/>
<path class="st10" d="M75.75,201.83c0-0.55-0.01-1.09-0.01-1.63c3.06,0.05,5.09,1.25,6.04,4.45c0.85,2.84-0.14,3.75-2.76,3.74
	c-0.27-0.01-0.55-0.01-0.82-0.02C77.36,206.2,78.58,203.26,75.75,201.83z"/>
<path class="st8" d="M78.19,208.37c0.27,0,0.55,0.01,0.82,0.02c-0.34,1.72,0.89,2.8,1.64,4.08c0.01,0.82,0.01,1.64,0.02,2.45
	C77.85,213.49,76.78,211.4,78.19,208.37z"/>
<path class="st2" d="M164.62,292.47c-0.09,0.23-0.19,0.46-0.29,0.68c-0.23-0.1-0.58-0.15-0.65-0.31c-0.06-0.16,0.16-0.44,0.26-0.67
	C164.16,292.28,164.39,292.37,164.62,292.47z"/>
<path class="st2" d="M168.75,292.93c-0.23,0.09-0.52,0.31-0.68,0.23c-0.16-0.07-0.2-0.43-0.29-0.66c0.23-0.08,0.52-0.3,0.68-0.23
	C168.63,292.34,168.66,292.69,168.75,292.93z"/>
<g>
	<path class="st11" d="M252.62,23.36c17.88,3.83,35.48,8.56,52.19,16.21c7.7,3.53,7.91,3.46,4.84,11.08
		c-13.8,34.19-2.8,73.71,24.18,96.79c1.1,0.94,2,2.23,3.67,2.22c2.87,4.06,6.95,6.35,11.57,7.84c1.17,0.94,2.21,2.12,3.9,2.11
		c1.38,1.53,3.14,2.21,5.16,2.35c0.15,0.38,0.42,0.51,0.81,0.4c5.7,2.95,11.84,4.28,18.19,4.77c11.12,2.56,22.2,1.55,33.01-1.32
		c4.55-1.21,6.52-0.24,7.62,3.9c0.31,0.93,0.62,1.86,0.93,2.79c-0.09,0.12-0.27,0.29-0.24,0.36c0.12,0.25,0.31,0.46,0.47,0.69v0.01
		c0.24,1.87,0.28,3.79,0.74,5.61c7.82,31.02,7.58,62.08,0.6,93.19c-1.61,7.2-1.63,7.24-8.12,3.34
		c-34.2-20.59-68.42-41.14-102.54-61.86c-5.28-3.2-9.79-3.47-15.1,0.04c-13.14,8.69-26.62,16.86-39.83,25.44
		c-3.64,2.36-6.34,2.66-10.18-0.08c-11.6-8.3-23.57-16.06-35.42-24.02c-18.97-12.75-37.94-25.49-56.92-38.21
		c-7.16-4.8-11.18-5.04-16.74-0.86c-6.87,5.16-13.64,10.45-20.48,15.64c-31.12,23.59-62.27,47.15-93.35,70.79
		c-1.59,1.21-2.77,1.77-4.35,0.36c-0.13-0.62-0.26-1.24-0.39-1.86c-0.25-1.75-0.52-3.5-0.77-5.25c-0.02-0.69-0.04-1.39-0.06-2.08
		c0.44-0.87,0.87-1.73-0.19-2.48c-1.86-14.9-2.11-29.88-0.52-44.75c3.67-34.23,14.93-65.81,34.35-94.39c2-2.94,4.34-4.06,7.86-4.07
		c11.59-0.03,23.19-0.33,34.78-0.57c32.24-0.66,64.49-1.39,96.74-1.94c4.23-0.07,7.35-1.08,7.01-5.81
		c-0.28-3.92-0.4-7.92-1.86-11.71c-5.34-13.84-21.89-22.15-38.06-18.47c-3.94,0.9-5.1,0.75-5.53-3.5c-0.6-6.01-3.7-10.87-8.12-15.19
		c-3.75-3.66-8.72-4.64-13.13-7.2c2.14-3.26,5.94-3.45,8.36-5.65c2.04,0.07,3.52-1.08,4.99-2.25c2.88,0.09,5.35-0.82,7.29-3.03
		c0.02-0.31,0.22-0.43,0.6-0.37c1.19,1.01,1.99,0.21,2.77-0.61c5.06-0.75,9.84-2.48,14.62-4.21c6.84-1.51,13.69-3.01,20.53-4.51
		l0.2-0.11c4.45,1.53,8.63-0.69,12.93-1.03C218.69,20.54,235.65,21.62,252.62,23.36z"/>
	<path class="st12" d="M384.72,149.87c-0.51-0.02-0.99,0.09-1.44,0.33c-19.55-0.76-36.17-7.8-48.83-23.05
		c-9.82-11.85-14.73-25.68-13.15-40.92c1.3-12.46,6.3-23.88,15.03-33.31c7.32-6.38,14.4-12.64,23.95-16.3
		c35.12-13.51,71.34,12.02,78.02,44.34c4.88,23.67-8.14,46.96-27.35,59.54c-1.5,0.98-3.21,1.57-4.2,3.2
		C399.4,145.76,392.06,147.82,384.72,149.87z"/>
	<path class="st13" d="M413.17,296.53c-2.27,5.73-4.15,11.59-6.86,17.03c-3.55,7.14-8.05,13.82-11.57,20.97
		c-2.99,6.05-5.87,4.76-9.7,1.03c-4.94-4.81-9.56-9.9-15.62-13.59c-12.76-7.78-31.29-7.32-43.58,1.09
		c-5.62,3.84-9.69,9.13-14.71,13.5c-11.43,9.95-25.07,9.89-36.43-0.36c-6.35-5.73-11.66-12.87-19.84-16.21
		c-16.27-6.65-31.29-4.65-44.55,7.36c-2.49,2.26-4.82,4.68-7.29,6.96c-14.25,13.18-28.71,12.9-42.11-1.19
		c-9.62-10.12-20.31-17.51-35.06-16.79c-10.24,0.5-19.4,3.4-26.6,11.12c-2.01,2.15-4.13,4.22-6.2,6.33
		c-12.82,13.06-27.33,13.01-41.56,1.49c-16.41-13.28-22.62-31.81-28.89-50.62c-1.03-3.09,0.85-4.11,2.7-5.5
		c25.78-19.47,51.54-38.94,77.32-58.42c12.17-9.2,24.4-18.36,36.49-27.68c2.97-2.29,5.08-2.82,8.62-0.41
		c31.59,21.46,63.37,42.65,95.1,63.91c5.2,3.49,9.27,3.58,15.1-0.7c13.34-9.78,27.81-18.03,41.77-26.97
		c2.92-1.87,4.9,0.31,6.88,1.49c21.69,12.89,43.3,25.92,64.95,38.89c12.26,7.35,24.56,14.64,36.8,22.03
		C410.37,292.55,413.02,293.43,413.17,296.53z"/>
	<path class="st14" d="M84.81,382.43c-5.32-7.59-13.27-12.67-18.89-19.97c-0.77-0.99-1.63-1.9-2.44-2.87
		c-0.81-0.96-1.87-1.93-0.99-3.29c0.67-1.04,1.9-0.68,2.88-0.56c17.9,2.21,31.01-5.96,42.52-18.69c9.84-10.88,24.16-11.5,35.73-2.23
		c5.06,4.06,9.84,8.48,14.57,12.94c11.93,11.28,37.93,11.44,51.56-2.43c3.39-3.45,6.85-6.9,10.66-9.86
		c12.8-9.96,24.72-9.34,36.8,1.74c6.32,5.8,11.95,12.57,20.26,15.7c15.26,5.75,33.76,5.06,49.78-13.79
		c6.79-7.99,15.33-11.47,25.79-10.2c7.38,0.89,12.36,5.83,17.59,10.34c1.6,1.38,2.94,3.03,4.47,4.48c7.99,7.64,8.12,7.75,0.52,16.49
		c-34.47,39.65-77.58,63.77-129.8,70.27c-57.8,7.19-109.61-7.87-155.09-44.41c-1.59-1.28-3.43-2.26-5.15-3.38
		C85.41,382.36,85.16,382.26,84.81,382.43z"/>
	<path class="st12" d="M108.69,57.07c1.79,0.33,3.33-0.27,4.8-1.21c16.6-3.15,25.78,5.67,32.39,19.46c1.76,3.66,4.48,6.8,10.39,5.82
		c8.11-1.35,16.52-0.67,23.08,5.64c1.49,1.43,3.56,3.22,2.81,5.32c-0.76,2.11-3.36,1.06-5.15,1.1
		c-36.06,0.78-72.11,1.52-108.17,2.23c-1.6,0.03-3.76,1.02-4.68-0.67c-1.23-2.27,1.53-3.06,2.55-4.47
		c3.74-5.22,9.66-8.48,12.86-14.21c1.17-0.39,1.95-1.18,2.38-2.33c6.81-5.12,13.62-10.25,20.43-15.37c0.75-0.15,1.5-0.31,2.25-0.46
		C106.02,57.9,107.5,58.15,108.69,57.07z"/>
</g>
<path class="st10" d="M120.05,61.25c-0.28,0.74-0.79,1.25-1.54,1.5c-1.91-0.19-3.73-0.19-5.38,1.14c-0.73,0.59-1.92,0.77-2.53-0.16
	c-0.56-0.83,0.35-1.46,0.9-2.02c2.18-2.21,5.24-3.44,6.72-6.5c0.49-1.01,2.26-1.24,3.06,0.11c0.63,1.04,0.23,2-1.18,2.43
	C116.53,58.82,120.26,60.08,120.05,61.25z"/>
<path class="st1" d="M76.55,182.19c0.02,1.69,0.15,3.4-0.84,4.92c-0.26,0-0.51,0-0.77,0c0.23-1.64-0.69-3.47,0.79-4.91
	C76.01,182.19,76.28,182.19,76.55,182.19z"/>
<path class="st0" d="M176.01,25.06c0.21,0.12,0.42,0.23,0.62,0.35c-0.2,0.12-0.4,0.33-0.6,0.33c-0.2,0-0.41-0.2-0.62-0.31
	C175.61,25.31,175.81,25.19,176.01,25.06z"/>
<path class="st0" d="M188.86,28.5c-0.11-0.15-0.23-0.29-0.35-0.44c0.16,0.12,0.32,0.25,0.48,0.37L188.86,28.5z"/>
<path class="st0" d="M323.95,119.41c-0.27,0.23-0.42,0.47-0.59,0.48c-0.47,0.05-1.02,0.22-1.31-0.39c0.23-0.11,0.46-0.3,0.68-0.3
	C323.11,119.2,323.48,119.33,323.95,119.41z"/>
<path class="st8" d="M97.02,242.76c1.08,0.46,1.63,1.28,1.63,2.46c-1.08-0.2-2.58,0.56-3.06-1.03
	C95.28,243.18,96.17,242.88,97.02,242.76z"/>
<path class="st2" d="M74.94,187.1c0.25,0,0.51,0,0.77,0c0.84,0.12,1.68,0.31,1.46,1.44c-0.05,0.27-0.55,0.71-0.79,0.67
	C75.24,189.02,74.99,188.1,74.94,187.1z"/>
<path class="st2" d="M137.32,50.48c-0.77,0.69-1.72,0.53-2.63,0.55C135.42,50.15,136.38,50.33,137.32,50.48z"/>
<g>
	<path class="st15" d="M44.66,446.09c-1.46,0.97-2.79,1.99-4.26,2.77c-0.66,0.35-1.62,0.44-2.36,0.26
		c-4.74-1.11-9.47-2.29-14.18-3.52c-0.91-0.24-1.25-0.04-1.55,0.83c-3.53,10.25-6.55,20.63-8.1,31.39c-0.31,2.13-0.45,4.29-0.6,6.44
		c-0.11,1.44-0.4,1.71-1.77,1.19c-0.93-0.35-1.88-0.73-2.7-1.28c-2.39-1.6-4.72-3.27-7.06-4.94c-1.35-0.96-1.81-2.29-1.78-3.94
		c0.09-4.82,0.62-9.58,1.73-14.25c1.45-6.1,3.08-12.15,4.64-18.22c0.09-0.35,0.18-0.69,0.32-1.19c-0.59-0.15-1.14-0.33-1.71-0.44
		c-6.86-1.36-13.72-2.69-20.57-4.06c-1.13-0.23-1.82,0.01-2.58,1c-11.48,15.12-24.24,29.03-39.33,40.65
		c-8.29,6.39-17.09,11.94-26.89,15.79c-6.94,2.72-14.18,3.73-21.56,4.07c-5.9,0.27-11.74,0.03-17.48-1.55
		c-8.34-2.31-13.08-7.84-14.69-16.25c-1.74-9.15,0.9-17.12,6.39-24.37c5.9-7.79,13.47-13.61,21.9-18.36
		c11.69-6.6,24.25-10.84,37.43-13.26c9.65-1.77,19.39-2.77,29.2-2.8c5.31-0.01,10.61,0.49,15.92,0.72c0.46,0.02,1.14-0.19,1.37-0.53
		c8.7-12.74,16.32-26.06,21.64-40.6c0.8-2.2,1.22-4.54,1.81-6.82c1.07-4.16-1.69-9.52-7.56-10.48c-3.68-0.61-7.26,0.08-10.81,0.85
		c-12.18,2.61-22.02,9.2-30.27,18.28c-7.75,8.52-12.96,18.46-15.83,29.61c-0.33,1.3-1,2.25-2.09,2.93
		c-3.83,2.4-7.96,4.06-12.39,4.96c-0.16,0.03-0.32,0.03-0.48,0.05c-1.84,0.15-2.05-0.12-1.92-1.96c0.44-6.55,3-12.4,6.13-18
		c10.87-19.5,26.61-33.55,47.4-41.78c6.32-2.5,12.95-3.83,19.81-3.53c5.23,0.23,10.21,1.51,14.65,4.36
		c6.18,3.97,10.05,9.95,8.37,18.82c-1.48,7.81-4.34,15.1-7.72,22.22c-3.86,8.13-8.38,15.9-13.27,23.45
		c-0.26,0.4-0.49,0.81-0.76,1.24c6.51,1.79,12.95,3.55,19.47,5.34c1.03-2.8,2.02-5.61,3.09-8.4c8.05-21.03,17.29-41.5,28.6-61
		c1.46-2.52,3.12-4.93,4.61-7.44c0.7-1.18,1.69-1.55,2.92-1.41c5.1,0.59,9.5,2.69,13.17,6.26c0.62,0.6,1.16,1.35,1.52,2.13
		c0.63,1.38,0.57,2.68-0.48,4c-8.15,10.33-14.95,21.52-21.03,33.15c-6.19,11.83-11.63,24-16.4,36.46c-0.14,0.36-0.27,0.73-0.49,1.33
		c6.32,1.64,12.57,3.26,18.95,4.92c0.2-0.79,0.34-1.35,0.48-1.91c2.12-8.55,6.44-15.96,11.82-22.8c6.05-7.69,13.32-13.9,22.29-17.95
		c6.18-2.79,12.69-4.03,19.49-3.48c5.91,0.48,9.65,3.75,11.46,9.22c0.73,2.22,0.98,4.59,1.42,6.9c0.16,0.84-0.28,1.45-1.02,1.69
		c-1.5,0.47-3.04,0.83-4.45,1.21c0.03,0.01,0.3,0.14,0.59,0.25c2.82,1.13,5.33,2.71,7.34,5.03c1.35,1.56,1.64,3.27,0.96,5.24
		c-1.83,5.28-3.68,10.55-5.34,15.89c-0.51,1.64-0.55,3.46-0.57,5.21c-0.02,1.37,0.49,1.73,1.81,1.42c1.07-0.25,2.12-0.7,3.11-1.21
		c4.71-2.45,8.32-6.17,11.58-10.26c4.13-5.18,7.07-11.12,10.6-16.68c3.02-4.76,4.22-10.13,5.88-15.35
		c1.33-4.18,2.28-8.48,3.36-12.73c0.29-1.15,0.93-1.83,2.06-2.03c3.13-0.57,6.02,0.34,8.84,1.53c2.12,0.9,3.98,2.2,5.55,3.9
		c1.57,1.71,2.15,3.58,1.23,5.83c-2.63,6.43-5.4,12.81-7.79,19.32c-2.02,5.5-3.68,11.13-5.32,16.76c-0.43,1.48-0.25,3.16-0.23,4.74
		c0.01,0.95,0.6,1.54,1.6,1.19c1.38-0.47,2.81-0.91,4.07-1.62c3.99-2.29,6.96-5.72,9.81-9.24c4.94-6.12,8.88-12.89,12.82-19.67
		c4.63-7.97,6.87-16.8,9.22-25.59c0.41-1.55,1.1-2.36,2.68-2.41c5.77-0.18,10.65,1.81,14.42,6.23c1.23,1.44,1.44,3.14,0.71,4.95
		c-3.28,8.15-6.58,16.28-9.79,24.46c-2.09,5.31-4.04,10.68-6.02,16.04c-0.35,0.95-0.56,1.96-0.83,2.94c0.1,0.09,0.2,0.18,0.3,0.28
		c0.94-0.54,1.99-0.95,2.8-1.64c2.39-2,4.83-3.96,6.99-6.19c11.69-12.05,21.64-25.44,30.45-39.7c1.71-2.77,3.04-5.79,4.45-8.74
		c0.39-0.81,0.53-1.75,0.69-2.65c0.21-1.19,0.82-1.65,1.89-1.03c1.22,0.71,2.48,1.55,3.37,2.62c1.29,1.54,2.4,3.27,3.3,5.07
		c0.35,0.7,0.21,2-0.24,2.67c-8.61,13.01-17.46,25.84-27.9,37.48c-6.21,6.92-12.74,13.49-20.64,18.53c-3.98,2.54-8.2,4.41-12.96,5
		c-6.66,0.83-10.92-2.75-11.09-9.49c-0.02-0.82,0-1.64,0-2.61c-1.38,1.67-2.65,3.29-4.02,4.84c-4.94,5.57-10.84,9.58-18.3,10.81
		c-2.01,0.33-4.18,0.37-6.17,0c-4.53-0.84-7.9-4.94-8.57-9.96c-0.19-1.46-0.26-2.93-0.39-4.5c-0.22,0.28-0.44,0.53-0.63,0.8
		c-4.47,6.13-9.58,11.58-16.18,15.47c-4.38,2.58-9.05,3.91-14.19,3.46c-6.89-0.6-10.86-4.24-11.96-11.32
		c-0.35,0.33-0.62,0.57-0.87,0.83c-4.05,4.22-8.36,8.15-13.37,11.23c-6.57,4.04-13.48,4.75-20.65,1.87
		c-6.27-2.52-9.32-7.47-10.09-14.01c-0.05-0.4-0.06-0.8-0.1-1.19C44.74,446.12,44.68,446.1,44.66,446.09z M-35.16,435.61
		c-0.82,0-1.26-0.02-1.7,0c-7.14,0.4-14.29,0.6-21.4,1.24c-12.29,1.1-24.15,4.1-35.53,8.89c-9.7,4.08-18.92,8.97-26.76,16.12
		c-3.17,2.89-6.1,6.02-7.7,10.12c-1.74,4.44-0.72,8.35,2.93,11.39c3.18,2.64,6.92,3.9,10.97,4.37c5.87,0.68,11.55-0.37,17.13-2.08
		c9.91-3.02,18.64-8.29,26.9-14.42c11.01-8.18,20.45-17.98,29.26-28.43C-39.15,440.53-37.28,438.2-35.16,435.61z M104.54,413.29
		c-0.17-0.33-0.56-0.9-0.78-1.54c-0.38-1.09-0.65-2.22-0.98-3.33c-0.98-3.23-3.41-5.05-6.79-4.93c-4.36,0.16-8.28,1.65-11.72,4.32
		c-9.44,7.32-15.26,17.06-18.76,28.31c-0.99,3.17-1.61,6.46-0.99,9.81c0.66,3.6,3.21,5.24,6.79,4.73c2.88-0.41,5.14-1.85,7.24-3.7
		c4.64-4.08,8.73-8.67,12.41-13.62c1.47-1.98,3.13-3.95,4.04-6.2c1.48-3.65,2.39-7.53,2.64-11.51c0.08-1.25,0.75-2.2,1.97-2.3
		C101.34,413.19,103.08,413.29,104.54,413.29z"/>
	<path class="st15" d="M425.01,367.04c-0.85,0.47-1.81,0.8-2.52,1.42c-3.35,2.91-6.78,5.75-9.89,8.89
		c-3.87,3.92-7.48,8.1-11.16,12.21c-0.52,0.58-0.9,1.32-1.17,2.05c-2.5,6.76-4.57,13.64-5.37,20.83c-0.28,2.54-0.31,5.1-0.41,7.66
		c-0.06,1.5-0.28,1.82-1.82,1.89c-4.27,0.2-8.2-1.05-11.97-2.9c-0.97-0.48-1.47-1.26-1.44-2.41c0.05-2.42,0.01-4.84,0.01-7.39
		c-0.25,0.32-0.47,0.58-0.67,0.85c-4.47,5.98-9.56,11.27-16.12,15.02c-5.01,2.86-10.32,4.05-16.03,2.87
		c-5.38-1.11-8.8-4.87-9.55-10.33c-0.02-0.15-0.06-0.3-0.44-0.78c-0.25,0.38-0.45,0.82-0.76,1.14c-4.35,4.5-8.93,8.72-14.45,11.78
		c-6.11,3.39-12.46,3.71-18.96,1.3c-4.76-1.76-7.91-5.12-9.56-9.91c-0.14-0.41-0.3-0.81-0.47-1.28c-1.75,1.91-3.36,3.79-5.09,5.55
		c-5.76,5.87-12.23,10.67-20.29,12.9c-3.69,1.02-7.44,1.56-11.25,0.64c-4.97-1.2-8.58-5.78-8.68-10.89
		c-0.1-4.84,1.42-9.28,3.83-13.31c2.99-4.99,6.42-9.72,9.69-14.55c0.94-1.39,1.91-2.77,2.95-4.08c1.62-2.05,3.31-4.03,4.85-5.89
		c-1.5,0.47-3.3,1.14-5.15,1.59c-2.09,0.51-4.21,0.96-6.34,1.18c-1.33,0.14-2.16,0.61-2.87,1.73c-2.89,4.56-5.88,9.05-8.77,13.6
		c-0.67,1.06-1.51,1.59-2.68,1.3c-1.34-0.33-2.69-0.72-3.91-1.34c-1.1-0.56-1.08-1.22-0.45-2.28c2.85-4.81,5.67-9.64,8.51-14.47
		c-2.06-2.2-2.34-4.89-1.41-7.5c1.1-3.1,2.64-6.06,4.11-9.02c1.67-3.35,3.48-6.63,5.33-10.13c3.48,0.9,7.38,1.48,10.31,4.42
		c1.33,1.33,1.87,2.95,1.71,4.8c-0.16,1.81-0.65,3.5-1.75,5.02c-1.55,2.13-2.98,4.34-4.45,6.52c-0.1,0.15-0.13,0.35-0.29,0.8
		c1.07-0.44,1.96-0.74,2.8-1.15c7.26-3.56,14.14-7.77,20.83-12.29c0.2-0.13,0.43-0.25,0.57-0.44c1.17-1.54,2.65-1.37,4.18-0.74
		c1.77,0.73,3.54,1.47,5.27,2.27c1.35,0.63,1.99,1.9,1.78,3.26c-0.3,1.86-0.61,3.88-1.55,5.46c-2.45,4.1-5.14,8.09-7.94,11.96
		c-4.59,6.35-9.43,12.52-14,18.88c-1.57,2.19-2.7,4.7-3.9,7.13c-0.45,0.9-0.63,1.98-0.75,2.99c-0.14,1.18,0.43,1.76,1.63,1.92
		c1.7,0.22,3.25-0.31,4.73-1.04c4.45-2.17,8.13-5.36,11.48-8.94c4.13-4.4,7.33-9.41,9.88-14.91c6.3-13.62,15.63-24.55,29.04-31.67
		c6.49-3.44,13.45-5.01,20.79-4.68c6.62,0.3,10.85,3.63,12.72,10.04c0.58,1.98,0.79,4.07,1.16,6.11c0.18,0.97-0.37,1.61-1.18,1.83
		c-1.58,0.44-3.2,0.72-4.42,0.98c1.28,0.67,3.02,1.45,4.62,2.46c1.17,0.74,2.21,1.71,3.19,2.7c1.59,1.59,1.95,3.45,1.18,5.62
		c-1.75,4.93-3.5,9.86-5.07,14.85c-0.56,1.76-0.75,3.68-0.84,5.54c-0.1,2.1,0.67,2.63,2.64,1.84c1.62-0.65,3.21-1.47,4.66-2.43
		c4.98-3.31,8.83-7.77,12.02-12.74c3.24-5.04,6.37-10.16,9.17-15.46c1.41-2.68,2.03-5.78,2.92-8.72c1.74-5.77,3.41-11.56,5.16-17.33
		c0.12-0.4,0.62-0.95,0.97-0.97c1.62-0.1,3.27-0.22,4.87,0c2.72,0.37,5.24,1.41,7.55,2.9c2.01,1.29,3.86,2.73,4.48,5.05
		c3.2-2.48,6.32-5.03,9.58-7.39c4.06-2.94,8.6-4.88,13.57-5.74c0.7-0.12,1.46-0.21,2.14-0.07c4.48,0.86,7.94,3.24,10.25,7.19
		c0.67,1.15,0.81,2.39,0.32,3.68c-3.12,8.29-6.24,16.59-9.34,24.88c-1.71,4.57-3.4,9.15-3.6,14.1c-0.04,0.96-0.11,1.92-0.1,2.87
		c0.01,1.22,0.33,1.46,1.46,0.93c1.15-0.54,2.28-1.15,3.35-1.85c7.67-5.07,13.7-11.72,18.48-19.53c1.92-3.13,3.76-6.32,5.57-9.51
		c0.49-0.86,1.1-1.18,2.03-1.13c1.77,0.09,3.31,0.73,4.4,2.11c0.36,0.46,0.57,1.47,0.31,1.93c-4.09,7.23-8.06,14.54-13.25,21.09
		c-4.22,5.32-8.77,10.28-14.39,14.16c-5.47,3.78-11.42,5.1-17.88,3.29c-4.99-1.4-8-5.52-8.38-10.66
		c-0.46-6.26,1.12-12.14,3.08-17.95c1.8-5.33,3.85-10.58,5.72-15.88c0.54-1.53,0.85-3.15,1.21-4.75c0.09-0.41,0.01-0.85,0.01-1.28
		C425.25,367.25,425.13,367.14,425.01,367.04z M351.38,382.82c-0.13-0.27-0.43-0.77-0.6-1.31c-0.4-1.21-0.72-2.45-1.1-3.66
		c-0.91-2.92-3.3-4.74-6.34-4.71c-4.6,0.05-8.69,1.62-12.28,4.44c-9.58,7.54-15.46,17.51-18.83,29.07c-0.85,2.91-1.35,5.93-0.75,9
		c0.65,3.3,2.83,4.91,6.15,4.69c2.85-0.19,5.19-1.44,7.3-3.25c5.27-4.53,9.67-9.84,13.95-15.29c3.79-4.82,4.98-10.43,5.7-16.25
		c0.22-1.77,0.79-2.59,2.53-2.7C348.59,382.74,350.09,382.82,351.38,382.82z"/>
	<path class="st16" d="M-35.16,435.61c-2.12,2.59-3.99,4.92-5.91,7.2c-8.81,10.45-18.25,20.25-29.26,28.43
		c-8.25,6.13-16.99,11.39-26.9,14.42c-5.57,1.7-11.25,2.76-17.13,2.08c-4.05-0.47-7.78-1.73-10.97-4.37
		c-3.65-3.03-4.67-6.95-2.93-11.39c1.61-4.1,4.53-7.23,7.7-10.12c7.84-7.15,17.06-12.04,26.76-16.12
		c11.39-4.79,23.24-7.79,35.53-8.89c7.11-0.64,14.27-0.85,21.4-1.24C-36.42,435.58-35.98,435.61-35.16,435.61z"/>
	<path class="st16" d="M104.54,413.29c-1.46,0-3.21-0.1-4.93,0.04c-1.23,0.1-1.89,1.05-1.97,2.3c-0.25,3.98-1.16,7.86-2.64,11.51
		c-0.91,2.25-2.57,4.22-4.04,6.2c-3.68,4.95-7.77,9.54-12.41,13.62c-2.1,1.85-4.37,3.29-7.24,3.7c-3.59,0.51-6.13-1.13-6.79-4.73
		c-0.61-3.35,0-6.63,0.99-9.81c3.5-11.24,9.32-20.99,18.76-28.31c3.44-2.67,7.36-4.16,11.72-4.32c3.38-0.12,5.81,1.7,6.79,4.93
		c0.34,1.11,0.6,2.24,0.98,3.33C103.98,412.39,104.37,412.97,104.54,413.29z"/>
	<path class="st16" d="M351.38,382.82c-1.29,0-2.79-0.08-4.27,0.02c-1.75,0.12-2.32,0.94-2.53,2.7c-0.71,5.82-1.91,11.43-5.7,16.25
		c-4.28,5.45-8.68,10.75-13.95,15.29c-2.11,1.82-4.45,3.06-7.3,3.25c-3.32,0.22-5.5-1.39-6.15-4.69c-0.6-3.06-0.1-6.09,0.75-9
		c3.37-11.55,9.24-21.53,18.83-29.07c3.59-2.82,7.68-4.39,12.28-4.44c3.04-0.03,5.43,1.79,6.34,4.71c0.38,1.22,0.7,2.45,1.1,3.66
		C350.95,382.05,351.25,382.55,351.38,382.82z"/>
</g>
</svg>
