<?xml version="1.0" encoding="utf-8"?>
<!-- Generator: Adobe Illustrator 25.3.1, SVG Export Plug-In . SVG Version: 6.00 Build 0)  -->
<svg version="1.1" xmlns="http://www.w3.org/2000/svg" xmlns:xlink="http://www.w3.org/1999/xlink" x="0px" y="0px"
	 viewBox="0 0 283.5 283.5" style="enable-background:new 0 0 283.5 283.5;" xml:space="preserve">
<style type="text/css">
	.st0{fill:#009FE3;}
</style>
<g id="Warstwa_1">
</g>
<g id="txt">
	<path class="st0" d="M230.8,123c0-49.2-39.9-89-89-89c-49.2,0-89,39.9-89,89c0,14.2,3.3,27.6,9.2,39.5c4.4,8.8,10.1,16.7,17,23.6
		l0,0l12,12l50.8,51.3l51.9-52.3l11-11l0,0C220.7,170,230.8,147.7,230.8,123z M152,134.1l-10.3-10.3l-7.3,7.3l-0.2,6.9l-26.5,26.5
		l-7.3-7.7l41.2-41.2l10.3,10.3V134.1z M179,161.2l-17.5-17.5v-21.8L141.7,102l-46.6,46.7c-4-7.5-6.3-16-6.3-25.1
		c0-29.2,23.7-53,53-53c29.2,0,53,23.7,53,53C194.7,138.3,188.7,151.6,179,161.2z"/>
</g>
</svg>
